<?xml version="1.0" encoding="UTF-8" standalone="no"?>
<!DOCTYPE svg PUBLIC "-//W3C//DTD SVG 1.1//EN" "http://www.w3.org/Graphics/SVG/1.1/DTD/svg11.dtd">
<svg xmlns="http://www.w3.org/2000/svg" version="1.1" viewBox="90 90 320 320"  >
<path stroke="#5cb3e1" stroke-width="2.00" fill="black" stroke-linecap="butt" vector-effect="non-scaling-stroke" d="
  M 189.49 346.65
  Q 211.58 359.48 233.91 371.86
  C 243.88 377.39 255.02 387.83 266.94 381.44
  C 276.33 376.41 285.13 370.29 294.68 365.51
  C 302.59 361.55 309.59 357.13 317.07 352.91
  C 321.22 350.57 326.31 347.11 331.19 344.60
  C 341.50 339.30 350.42 333.89 360.08 328.53
  C 370.55 322.74 374.76 317.49 374.77 305.39
  Q 374.80 244.32 374.67 183.25
  C 374.65 173.82 369.15 168.18 361.27 163.96
  C 353.93 160.02 346.69 156.40 340.39 152.83
  Q 327.42 145.47 314.51 138.00
  C 311.44 136.22 307.48 134.51 304.09 132.47
  C 295.86 127.53 287.49 122.88 279.15 118.12
  C 274.36 115.38 269.22 113.05 264.23 110.54
  Q 258.25 107.53 251.65 110.85
  C 238.32 117.55 225.56 125.22 212.66 132.70
  C 208.62 135.04 203.55 137.28 199.13 139.90
  C 188.63 146.13 178.08 152.37 167.18 157.90
  Q 155.60 163.76 150.92 166.91
  Q 141.51 173.24 141.50 185.75
  Q 141.41 247.13 141.52 308.50
  C 141.53 315.27 144.91 320.32 150.69 324.29
  C 157.65 329.09 165.29 333.29 172.74 337.29
  C 175.70 338.88 178.95 341.16 182.22 342.84
  Q 188.19 345.89 189.49 346.65"
/>
<path fill="#077cc3" d="
  M 205.15 374.87
  C 199.58 371.84 194.41 368.15 188.72 365.35
  Q 183.96 363.00 181.91 361.81
  C 173.06 356.68 164.09 351.77 155.28 346.56
  C 151.07 344.07 146.08 342.08 142.52 339.65
  C 132.66 332.89 125.02 320.06 125.02 307.25
  Q 125.03 245.75 125.35 184.25
  C 125.40 174.46 128.62 167.12 134.48 159.82
  C 140.60 152.18 151.57 148.08 159.58 143.25
  C 166.26 139.22 174.17 135.46 180.05 132.12
  C 186.81 128.28 192.77 124.95 200.16 120.44
  C 206.11 116.81 211.77 114.51 217.11 111.24
  C 225.24 106.26 233.57 101.64 241.80 96.82
  Q 243.46 95.84 247.39 94.62
  C 258.12 91.28 270.35 93.72 279.72 99.41
  C 289.91 105.60 298.97 110.59 310.87 117.01
  C 316.78 120.19 323.35 124.36 328.21 127.12
  C 343.78 135.95 359.61 144.10 374.97 153.35
  C 386.92 160.54 391.22 173.40 391.27 186.83
  Q 391.60 264.80 391.35 307.75
  C 391.32 313.26 389.90 318.93 387.20 323.95
  C 386.17 325.86 385.38 327.93 384.19 329.61
  Q 378.17 338.12 369.01 342.70
  Q 361.59 346.41 361.45 346.48
  C 352.00 351.83 342.31 357.58 333.18 362.55
  C 323.53 367.82 315.69 372.70 306.85 377.65
  C 303.26 379.66 299.09 382.62 294.95 384.74
  Q 288.12 388.25 286.73 389.06
  C 280.78 392.56 275.60 396.07 268.51 398.09
  C 251.05 403.06 240.39 394.54 225.44 386.40
  C 218.97 382.88 212.01 378.60 205.15 374.87
  Z
  M 189.49 346.65
  Q 211.58 359.48 233.91 371.86
  C 243.88 377.39 255.02 387.83 266.94 381.44
  C 276.33 376.41 285.13 370.29 294.68 365.51
  C 302.59 361.55 309.59 357.13 317.07 352.91
  C 321.22 350.57 326.31 347.11 331.19 344.60
  C 341.50 339.30 350.42 333.89 360.08 328.53
  C 370.55 322.74 374.76 317.49 374.77 305.39
  Q 374.80 244.32 374.67 183.25
  C 374.65 173.82 369.15 168.18 361.27 163.96
  C 353.93 160.02 346.69 156.40 340.39 152.83
  Q 327.42 145.47 314.51 138.00
  C 311.44 136.22 307.48 134.51 304.09 132.47
  C 295.86 127.53 287.49 122.88 279.15 118.12
  C 274.36 115.38 269.22 113.05 264.23 110.54
  Q 258.25 107.53 251.65 110.85
  C 238.32 117.55 225.56 125.22 212.66 132.70
  C 208.62 135.04 203.55 137.28 199.13 139.90
  C 188.63 146.13 178.08 152.37 167.18 157.90
  Q 155.60 163.76 150.92 166.91
  Q 141.51 173.24 141.50 185.75
  Q 141.41 247.13 141.52 308.50
  C 141.53 315.27 144.91 320.32 150.69 324.29
  C 157.65 329.09 165.29 333.29 172.74 337.29
  C 175.70 338.88 178.95 341.16 182.22 342.84
  Q 188.19 345.89 189.49 346.65
  Z"
/>
<path fill="#b1e9ff" d="
  M 182.22 342.84
  C 178.95 341.16 175.70 338.88 172.74 337.29
  C 165.29 333.29 157.65 329.09 150.69 324.29
  C 144.91 320.32 141.53 315.27 141.52 308.50
  Q 141.41 247.13 141.50 185.75
  Q 141.51 173.24 150.92 166.91
  Q 155.60 163.76 167.18 157.90
  C 178.08 152.37 188.63 146.13 199.13 139.90
  C 203.55 137.28 208.62 135.04 212.66 132.70
  C 225.56 125.22 238.32 117.55 251.65 110.85
  Q 258.25 107.53 264.23 110.54
  C 269.22 113.05 274.36 115.38 279.15 118.12
  C 287.49 122.88 295.86 127.53 304.09 132.47
  C 307.48 134.51 311.44 136.22 314.51 138.00
  Q 327.42 145.47 340.39 152.83
  C 346.69 156.40 353.93 160.02 361.27 163.96
  C 369.15 168.18 374.65 173.82 374.67 183.25
  Q 374.80 244.32 374.77 305.39
  C 374.76 317.49 370.55 322.74 360.08 328.53
  C 350.42 333.89 341.50 339.30 331.19 344.60
  C 326.31 347.11 321.22 350.57 317.07 352.91
  C 309.59 357.13 302.59 361.55 294.68 365.51
  C 285.13 370.29 276.33 376.41 266.94 381.44
  C 255.02 387.83 243.88 377.39 233.91 371.86
  Q 211.58 359.48 189.49 346.65
  Q 188.19 345.89 182.22 342.84
  Z
  M 157.50 182.02
  L 157.54 310.00
  Q 157.54 310.38 157.96 310.61
  C 164.41 314.15 171.31 317.54 177.48 321.51
  C 178.99 322.48 181.07 323.11 182.31 323.83
  C 199.26 333.74 216.27 343.49 233.36 353.14
  C 240.55 357.19 249.83 362.87 258.69 366.93
  Q 259.13 367.14 259.54 366.88
  C 264.85 363.59 270.58 361.08 275.95 357.85
  C 292.71 347.76 309.99 338.69 326.71 328.52
  C 332.85 324.78 338.15 322.81 343.33 319.65
  C 348.26 316.64 353.31 313.88 358.31 311.05
  A 0.94 0.93 -15.0 0 0 358.78 310.24
  L 358.74 182.02
  Q 358.74 181.60 358.38 181.40
  L 259.00 125.15
  A 0.88 0.87 -44.1 0 0 258.15 125.14
  Q 241.39 134.29 224.67 143.65
  C 218.43 147.14 210.51 152.68 204.24 155.55
  Q 200.19 157.40 197.61 158.96
  C 191.60 162.57 185.49 165.91 179.49 169.56
  Q 170.87 174.81 166.54 176.84
  Q 160.88 179.49 158.02 181.11
  Q 157.49 181.41 157.50 182.02
  Z"
/>
<path fill="#29445d" d="
  M 218.29 166.61
  L 258.06 144.37
  A 1.06 1.06 0.0 0 1 259.09 144.37
  L 298.93 166.47
  A 1.06 1.06 0.0 0 1 298.42 168.46
  L 218.81 168.60
  A 1.06 1.06 0.0 0 1 218.29 166.61
  Z"
/>
<path fill="#29445d" d="
  M 341.84 300.64
  L 324.73 310.14
  Q 323.27 310.95 323.27 309.50
  L 323.29 182.36
  Q 323.29 181.76 323.81 181.45
  Q 324.19 181.23 324.99 181.70
  C 330.53 185.00 336.53 187.87 341.78 191.34
  A 2.13 2.04 17.5 0 1 342.73 193.07
  L 342.55 299.44
  A 1.37 1.37 0.0 0 1 341.84 300.64
  Z"
/>
<path fill="#29445d" d="
  M 174.14 299.59
  L 174.17 192.11
  A 1.00 1.00 0.0 0 1 174.66 191.25
  L 191.41 181.41
  A 1.00 1.00 0.0 0 1 192.92 182.27
  L 192.82 308.91
  A 1.00 1.00 0.0 0 1 191.33 309.78
  L 174.65 300.47
  A 1.00 1.00 0.0 0 1 174.14 299.59
  Z"
/>
<path fill="#ffffff" d="
  M 227.15 256.76
  Q 226.55 257.15 226.55 257.85
  L 226.51 288.93
  A 2.67 2.67 0.0 0 0 229.18 291.61
  L 303.58 291.63
  A 3.95 3.95 0.0 0 1 307.53 295.58
  L 307.52 306.00
  A 4.27 4.27 0.0 0 1 303.25 310.26
  L 213.76 310.28
  A 5.02 5.01 -90.0 0 1 208.75 305.26
  L 208.74 189.49
  A 5.02 5.02 0.0 0 1 213.76 184.47
  L 303.24 184.49
  A 4.26 4.26 0.0 0 1 307.50 188.75
  L 307.50 199.72
  A 3.72 3.72 0.0 0 1 303.78 203.44
  L 228.13 203.52
  A 1.60 1.60 0.0 0 0 226.53 205.12
  L 226.50 234.99
  A 2.49 2.49 0.0 0 0 228.99 237.48
  L 304.00 237.50
  A 3.52 3.51 0.0 0 1 307.51 241.00
  L 307.53 253.03
  A 3.44 3.44 0.0 0 1 304.09 256.48
  Q 266.39 256.54 229.00 256.38
  Q 227.74 256.37 227.15 256.76
  Z"
/>
<path fill="#29445d" d="
  M 255.53 346.49
  Q 249.58 343.25 243.53 340.21
  C 241.24 339.06 238.63 336.85 236.04 335.49
  Q 229.92 332.29 223.89 328.93
  Q 222.48 328.15 221.50 327.08
  A 0.62 0.61 -21.2 0 1 221.96 326.05
  L 295.50 326.52
  A 0.36 0.36 0.0 0 1 295.85 326.98
  Q 295.70 327.46 295.09 327.81
  C 285.59 333.28 276.24 339.09 266.48 344.09
  Q 264.05 345.34 260.65 347.39
  C 258.70 348.57 257.22 347.42 255.53 346.49
  Z"
/>
</svg>
